<svg width="131" height="25" viewBox="0 0 131 25" fill="none" xmlns="http://www.w3.org/2000/svg">
<path d="M4.50611e-05 24.224V0.383997H4.16005L13.088 12.512H11.104L19.84 0.383997H24V24.224H19.616V5.344L21.312 5.76L12.256 17.824H11.744L2.91205 5.76L4.35205 5.344V24.224H4.50611e-05ZM39.3465 24.608C37.5972 24.608 35.9652 24.2987 34.4505 23.68C32.9359 23.0613 31.6132 22.1973 30.4825 21.088C29.3519 19.9787 28.4665 18.6773 27.8265 17.184C27.2079 15.6693 26.8985 14.0373 26.8985 12.288C26.8985 10.5173 27.2079 8.88533 27.8265 7.392C28.4452 5.89867 29.3199 4.59733 30.4505 3.488C31.5812 2.37866 32.9039 1.52533 34.4185 0.927998C35.9332 0.309331 37.5759 -1.90735e-06 39.3465 -1.90735e-06C41.1172 -1.90735e-06 42.7599 0.309331 44.2745 0.927998C45.7892 1.54666 47.1119 2.41066 48.2425 3.52C49.3732 4.608 50.2479 5.89867 50.8665 7.392C51.5065 8.88533 51.8265 10.5173 51.8265 12.288C51.8265 14.0373 51.5065 15.6693 50.8665 17.184C50.2265 18.6773 49.3412 19.9787 48.2105 21.088C47.0799 22.1973 45.7572 23.0613 44.2425 23.68C42.7492 24.2987 41.1172 24.608 39.3465 24.608ZM39.3465 20.64C40.5199 20.64 41.5972 20.4373 42.5785 20.032C43.5599 19.6053 44.4132 19.0187 45.1385 18.272C45.8852 17.5253 46.4505 16.64 46.8345 15.616C47.2399 14.592 47.4425 13.4827 47.4425 12.288C47.4425 11.0933 47.2399 9.99467 46.8345 8.992C46.4505 7.968 45.8852 7.08266 45.1385 6.336C44.4132 5.568 43.5599 4.98133 42.5785 4.576C41.5972 4.17067 40.5199 3.968 39.3465 3.968C38.1945 3.968 37.1279 4.17067 36.1465 4.576C35.1652 4.98133 34.3012 5.568 33.5545 6.336C32.8292 7.08266 32.2639 7.968 31.8585 8.992C31.4532 9.99467 31.2505 11.0933 31.2505 12.288C31.2505 13.4827 31.4532 14.592 31.8585 15.616C32.2639 16.64 32.8292 17.5253 33.5545 18.272C34.3012 19.0187 35.1652 19.6053 36.1465 20.032C37.1279 20.4373 38.1945 20.64 39.3465 20.64ZM54.7363 24.224V0.383997H63.6003C65.2216 0.383997 66.651 0.682664 67.8883 1.28C69.147 1.856 70.1283 2.70933 70.8323 3.84C71.5363 4.94933 71.8883 6.304 71.8883 7.904C71.8883 9.54666 71.4936 10.944 70.7043 12.096C69.9363 13.248 68.891 14.1013 67.5683 14.656L73.0403 24.224H68.1123L62.2563 13.76L65.0723 15.424H59.0883V24.224H54.7363ZM59.0883 11.584H63.6643C64.4536 11.584 65.1363 11.4347 65.7123 11.136C66.2883 10.816 66.7363 10.3787 67.0563 9.824C67.3763 9.26933 67.5363 8.62933 67.5363 7.904C67.5363 7.15733 67.3763 6.51733 67.0563 5.984C66.7363 5.42933 66.2883 5.00267 65.7123 4.704C65.1363 4.384 64.4536 4.224 63.6643 4.224H59.0883V11.584ZM74.9325 24.224V0.383997H90.7725V4.224H79.2845V10.336H90.1325V14.176H79.2845V20.384H90.7725V24.224H74.9325ZM93.0038 24.224V0.383997H96.3958L109.516 18.048L107.756 18.4V0.383997H112.108V24.224H108.684L95.7558 6.432L97.3558 6.08V24.224H93.0038ZM119.987 24.224V4.224H113.811V0.383997H130.451V4.224H124.371V24.224H119.987Z" fill="#3563E9"/>
</svg>
