<svg width="22" height="21" viewBox="0 0 22 21" fill="none" xmlns="http://www.w3.org/2000/svg">
<path d="M21.09 7.33L19.09 6.33C18.72 6.15 18.26 6.29 18.08 6.66C17.89 7.04 18.04 7.49 18.41 7.67L20 8.46V13.25L16.25 13.26V3C16.25 1 14.91 0 13.25 0H5.25C3.59 0 2.25 1 2.25 3V19.25H0.75C0.34 19.25 0 19.59 0 20C0 20.41 0.34 20.75 0.75 20.75H17.75C18.16 20.75 18.5 20.41 18.5 20C18.5 19.59 18.16 19.25 17.75 19.25H16.25V14.76L20.75 14.75C21.17 14.75 21.5 14.41 21.5 14V8C21.5 7.72 21.34 7.46 21.09 7.33ZM4.75 4.89C4.75 3.5 5.6 3 6.64 3H11.87C12.9 3 13.75 3.5 13.75 4.89V6.12C13.75 7.5 12.9 8 11.86 8H6.64C5.6 8 4.75 7.5 4.75 6.11V4.89ZM5.25 10.25H8.25C8.66 10.25 9 10.59 9 11C9 11.41 8.66 11.75 8.25 11.75H5.25C4.84 11.75 4.5 11.41 4.5 11C4.5 10.59 4.84 10.25 5.25 10.25Z" fill="#90A3BF"/>
</svg>
