<svg width="327" height="120" viewBox="0 0 327 120" fill="none" xmlns="http://www.w3.org/2000/svg">
<rect width="327" height="120" rx="10" fill="white"/>
<rect x="16" y="18" width="16" height="16" rx="8" fill="#3563E9" fill-opacity="0.3"/>
<circle cx="24" cy="26" r="4" fill="#3563E9"/>
<path d="M41.232 33V21.08H45.568C46.368 21.08 47.072 21.2293 47.68 21.528C48.2987 21.816 48.7787 22.2427 49.12 22.808C49.4613 23.3627 49.632 24.0293 49.632 24.808C49.632 25.576 49.456 26.2373 49.104 26.792C48.7627 27.3467 48.288 27.7733 47.68 28.072C47.072 28.3707 46.368 28.52 45.568 28.52H43.12V33H41.232ZM43.12 26.84H45.616C46.0427 26.84 46.416 26.7547 46.736 26.584C47.056 26.4133 47.3067 26.1787 47.488 25.88C47.6693 25.5707 47.76 25.208 47.76 24.792C47.76 24.376 47.6693 24.0187 47.488 23.72C47.3067 23.4107 47.056 23.176 46.736 23.016C46.416 22.8453 46.0427 22.76 45.616 22.76H43.12V26.84ZM51.0798 33V24.344H52.8878V33H51.0798ZM51.0798 23.16V21.08H52.8878V23.16H51.0798ZM58.7936 33.192C57.9296 33.192 57.1616 32.9947 56.4896 32.6C55.8283 32.1947 55.3003 31.6507 54.9056 30.968C54.5216 30.2853 54.3296 29.512 54.3296 28.648C54.3296 27.7947 54.5216 27.0267 54.9056 26.344C55.2896 25.6613 55.8176 25.128 56.4896 24.744C57.1616 24.3493 57.9296 24.152 58.7936 24.152C59.3803 24.152 59.9296 24.2587 60.4416 24.472C60.9536 24.6747 61.3963 24.9573 61.7696 25.32C62.1536 25.6827 62.4363 26.104 62.6176 26.584L61.0336 27.32C60.8523 26.872 60.559 26.5147 60.1536 26.248C59.759 25.9707 59.3056 25.832 58.7936 25.832C58.303 25.832 57.8603 25.9547 57.4656 26.2C57.0816 26.4347 56.7776 26.7707 56.5536 27.208C56.3296 27.6347 56.2176 28.12 56.2176 28.664C56.2176 29.208 56.3296 29.6987 56.5536 30.136C56.7776 30.5627 57.0816 30.8987 57.4656 31.144C57.8603 31.3893 58.303 31.512 58.7936 31.512C59.3163 31.512 59.7696 31.3787 60.1536 31.112C60.5483 30.8347 60.8416 30.4667 61.0336 30.008L62.6176 30.76C62.447 31.2187 62.1696 31.6347 61.7856 32.008C61.4123 32.3707 60.9696 32.6587 60.4576 32.872C59.9456 33.0853 59.391 33.192 58.7936 33.192ZM64.0648 33V20.888H65.8728V29L65.1688 28.824L69.5048 24.344H71.7608L68.4968 27.816L71.9048 33H69.8248L66.7848 28.408L67.8568 28.264L65.2968 30.984L65.8728 29.784V33H64.0648ZM75.5718 29.464V27.864H81.9718V29.464H75.5718ZM91.1591 33.192C90.2738 33.192 89.4845 33.0053 88.7911 32.632C88.1085 32.2587 87.5698 31.7467 87.1751 31.096C86.7911 30.4453 86.5991 29.704 86.5991 28.872V21.08H88.4871V28.792C88.4871 29.3147 88.5991 29.7787 88.8231 30.184C89.0578 30.5893 89.3725 30.904 89.7671 31.128C90.1725 31.352 90.6365 31.464 91.1591 31.464C91.6925 31.464 92.1565 31.352 92.5511 31.128C92.9565 30.904 93.2711 30.5893 93.4951 30.184C93.7298 29.7787 93.8471 29.3147 93.8471 28.792V21.08H95.7191V28.872C95.7191 29.704 95.5271 30.4453 95.1431 31.096C94.7591 31.7467 94.2205 32.2587 93.5271 32.632C92.8445 33.0053 92.0551 33.192 91.1591 33.192ZM97.5897 36.2V24.344H99.3177V26.136L99.1097 25.72C99.4297 25.2293 99.8564 24.8453 100.39 24.568C100.923 24.2907 101.531 24.152 102.214 24.152C103.035 24.152 103.771 24.3493 104.422 24.744C105.083 25.1387 105.6 25.6773 105.974 26.36C106.358 27.0427 106.55 27.8107 106.55 28.664C106.55 29.5173 106.358 30.2853 105.974 30.968C105.6 31.6507 105.088 32.1947 104.438 32.6C103.787 32.9947 103.046 33.192 102.214 33.192C101.542 33.192 100.928 33.0533 100.374 32.776C99.8297 32.4987 99.4084 32.0987 99.1097 31.576L99.3977 31.24V36.2H97.5897ZM102.038 31.512C102.55 31.512 103.003 31.3893 103.398 31.144C103.792 30.8987 104.102 30.5627 104.326 30.136C104.56 29.6987 104.678 29.208 104.678 28.664C104.678 28.12 104.56 27.6347 104.326 27.208C104.102 26.7813 103.792 26.4453 103.398 26.2C103.003 25.9547 102.55 25.832 102.038 25.832C101.536 25.832 101.083 25.9547 100.678 26.2C100.283 26.4453 99.9684 26.7813 99.7337 27.208C99.5097 27.6347 99.3977 28.12 99.3977 28.664C99.3977 29.208 99.5097 29.6987 99.7337 30.136C99.9684 30.5627 100.283 30.8987 100.678 31.144C101.083 31.3893 101.536 31.512 102.038 31.512Z" fill="#1A202C"/>
<path d="M17.152 77V65.08H19.328V75.08H24.432V77H17.152ZM29.5995 77.192C28.7462 77.192 27.9675 76.9947 27.2635 76.6C26.5702 76.2053 26.0155 75.6667 25.5995 74.984C25.1942 74.3013 24.9915 73.5227 24.9915 72.648C24.9915 71.7733 25.1942 70.9947 25.5995 70.312C26.0155 69.6293 26.5702 69.0907 27.2635 68.696C27.9568 68.3013 28.7355 68.104 29.5995 68.104C30.4528 68.104 31.2262 68.3013 31.9195 68.696C32.6128 69.0907 33.1622 69.6293 33.5675 70.312C33.9835 70.984 34.1915 71.7627 34.1915 72.648C34.1915 73.5227 33.9835 74.3013 33.5675 74.984C33.1515 75.6667 32.5968 76.2053 31.9035 76.6C31.2102 76.9947 30.4422 77.192 29.5995 77.192ZM29.5995 75.272C30.0688 75.272 30.4795 75.16 30.8315 74.936C31.1942 74.712 31.4768 74.4027 31.6795 74.008C31.8928 73.6027 31.9995 73.1493 31.9995 72.648C31.9995 72.136 31.8928 71.688 31.6795 71.304C31.4768 70.9093 31.1942 70.6 30.8315 70.376C30.4795 70.1413 30.0688 70.024 29.5995 70.024C29.1195 70.024 28.6982 70.1413 28.3355 70.376C27.9728 70.6 27.6848 70.9093 27.4715 71.304C27.2688 71.688 27.1675 72.136 27.1675 72.648C27.1675 73.1493 27.2688 73.6027 27.4715 74.008C27.6848 74.4027 27.9728 74.712 28.3355 74.936C28.6982 75.16 29.1195 75.272 29.5995 75.272ZM39.653 77.192C38.789 77.192 38.0103 76.9947 37.317 76.6C36.6343 76.1947 36.0957 75.6507 35.701 74.968C35.3063 74.2747 35.109 73.496 35.109 72.632C35.109 71.768 35.3063 70.9947 35.701 70.312C36.0957 69.6293 36.6343 69.0907 37.317 68.696C38.0103 68.3013 38.789 68.104 39.653 68.104C40.2717 68.104 40.8477 68.216 41.381 68.44C41.9143 68.6533 42.373 68.952 42.757 69.336C43.1517 69.7093 43.4343 70.1573 43.605 70.68L41.765 71.48C41.605 71.0427 41.333 70.6907 40.949 70.424C40.5757 70.1573 40.1437 70.024 39.653 70.024C39.1943 70.024 38.7837 70.136 38.421 70.36C38.069 70.584 37.7917 70.8933 37.589 71.288C37.3863 71.6827 37.285 72.136 37.285 72.648C37.285 73.16 37.3863 73.6133 37.589 74.008C37.7917 74.4027 38.069 74.712 38.421 74.936C38.7837 75.16 39.1943 75.272 39.653 75.272C40.1543 75.272 40.5917 75.1387 40.965 74.872C41.3383 74.6053 41.605 74.248 41.765 73.8L43.605 74.632C43.4343 75.1227 43.157 75.5653 42.773 75.96C42.389 76.344 41.9303 76.648 41.397 76.872C40.8637 77.0853 40.2823 77.192 39.653 77.192ZM47.4841 77.192C46.8761 77.192 46.3481 77.0907 45.9001 76.888C45.4521 76.6853 45.1055 76.3973 44.8601 76.024C44.6148 75.64 44.4921 75.1973 44.4921 74.696C44.4921 74.216 44.5988 73.7893 44.8121 73.416C45.0255 73.032 45.3561 72.712 45.8041 72.456C46.2521 72.2 46.8175 72.0187 47.5001 71.912L50.3481 71.448V73.048L47.9001 73.464C47.4841 73.5387 47.1748 73.672 46.9721 73.864C46.7695 74.056 46.6681 74.3067 46.6681 74.616C46.6681 74.9147 46.7801 75.1547 47.0041 75.336C47.2388 75.5067 47.5268 75.592 47.8681 75.592C48.3055 75.592 48.6895 75.5013 49.0201 75.32C49.3615 75.128 49.6228 74.8667 49.8041 74.536C49.9961 74.2053 50.0921 73.8427 50.0921 73.448V71.208C50.0921 70.8347 49.9428 70.5253 49.6441 70.28C49.3561 70.024 48.9721 69.896 48.4921 69.896C48.0441 69.896 47.6441 70.0187 47.2921 70.264C46.9508 70.4987 46.7001 70.8133 46.5401 71.208L44.8281 70.376C44.9988 69.9173 45.2655 69.5227 45.6281 69.192C46.0015 68.8507 46.4388 68.584 46.9401 68.392C47.4415 68.2 47.9855 68.104 48.5721 68.104C49.2868 68.104 49.9161 68.2373 50.4601 68.504C51.0041 68.76 51.4255 69.1227 51.7241 69.592C52.0335 70.0507 52.1881 70.5893 52.1881 71.208V77H50.2041V75.512L50.6521 75.48C50.4281 75.8533 50.1615 76.168 49.8521 76.424C49.5428 76.6693 49.1908 76.8613 48.7961 77C48.4015 77.128 47.9641 77.192 47.4841 77.192ZM57.6171 77.096C56.6358 77.096 55.8731 76.8293 55.3291 76.296C54.7958 75.752 54.5291 74.9893 54.5291 74.008V70.168H53.0251V68.296H53.1851C53.6118 68.296 53.9425 68.184 54.1771 67.96C54.4118 67.736 54.5291 67.4107 54.5291 66.984V66.312H56.6251V68.296H58.6251V70.168H56.6251V73.896C56.6251 74.184 56.6731 74.4293 56.7691 74.632C56.8758 74.8347 57.0358 74.9893 57.2491 75.096C57.4731 75.2027 57.7558 75.256 58.0971 75.256C58.1718 75.256 58.2571 75.2507 58.3531 75.24C58.4598 75.2293 58.5611 75.2187 58.6571 75.208V77C58.5078 77.0213 58.3371 77.0427 58.1451 77.064C57.9531 77.0853 57.7771 77.096 57.6171 77.096ZM59.9385 77V68.296H62.0345V77H59.9385ZM59.9385 67.32V65.08H62.0345V67.32H59.9385ZM67.9058 77.192C67.0524 77.192 66.2738 76.9947 65.5698 76.6C64.8764 76.2053 64.3218 75.6667 63.9058 74.984C63.5004 74.3013 63.2978 73.5227 63.2978 72.648C63.2978 71.7733 63.5004 70.9947 63.9058 70.312C64.3218 69.6293 64.8764 69.0907 65.5698 68.696C66.2631 68.3013 67.0418 68.104 67.9058 68.104C68.7591 68.104 69.5324 68.3013 70.2258 68.696C70.9191 69.0907 71.4684 69.6293 71.8738 70.312C72.2898 70.984 72.4978 71.7627 72.4978 72.648C72.4978 73.5227 72.2898 74.3013 71.8738 74.984C71.4578 75.6667 70.9031 76.2053 70.2098 76.6C69.5164 76.9947 68.7484 77.192 67.9058 77.192ZM67.9058 75.272C68.3751 75.272 68.7858 75.16 69.1378 74.936C69.5004 74.712 69.7831 74.4027 69.9858 74.008C70.1991 73.6027 70.3058 73.1493 70.3058 72.648C70.3058 72.136 70.1991 71.688 69.9858 71.304C69.7831 70.9093 69.5004 70.6 69.1378 70.376C68.7858 70.1413 68.3751 70.024 67.9058 70.024C67.4258 70.024 67.0044 70.1413 66.6418 70.376C66.2791 70.6 65.9911 70.9093 65.7778 71.304C65.5751 71.688 65.4738 72.136 65.4738 72.648C65.4738 73.1493 65.5751 73.6027 65.7778 74.008C65.9911 74.4027 66.2791 74.712 66.6418 74.936C67.0044 75.16 67.4258 75.272 67.9058 75.272ZM73.7672 77V68.296H75.7352V70.008L75.5752 69.704C75.7779 69.1813 76.1086 68.7867 76.5672 68.52C77.0366 68.2427 77.5806 68.104 78.1992 68.104C78.8392 68.104 79.4046 68.2427 79.8952 68.52C80.3966 68.7973 80.7859 69.1867 81.0632 69.688C81.3406 70.1787 81.4792 70.7493 81.4792 71.4V77H79.3832V71.896C79.3832 71.512 79.3086 71.1813 79.1592 70.904C79.0099 70.6267 78.8019 70.4133 78.5352 70.264C78.2792 70.104 77.9752 70.024 77.6232 70.024C77.2819 70.024 76.9779 70.104 76.7112 70.264C76.4446 70.4133 76.2366 70.6267 76.0872 70.904C75.9379 71.1813 75.8632 71.512 75.8632 71.896V77H73.7672ZM86.2436 77.192C85.3156 77.192 84.505 76.9733 83.8116 76.536C83.129 76.088 82.6596 75.4853 82.4036 74.728L83.9716 73.976C84.1956 74.4667 84.505 74.8507 84.8996 75.128C85.305 75.4053 85.753 75.544 86.2436 75.544C86.6276 75.544 86.9316 75.4587 87.1556 75.288C87.3796 75.1173 87.4916 74.8933 87.4916 74.616C87.4916 74.4453 87.4436 74.3067 87.3476 74.2C87.2623 74.0827 87.1396 73.9867 86.9796 73.912C86.8303 73.8267 86.665 73.7573 86.4836 73.704L85.0596 73.304C84.3236 73.0907 83.7636 72.7653 83.3796 72.328C83.0063 71.8907 82.8196 71.3733 82.8196 70.776C82.8196 70.2427 82.953 69.7787 83.2196 69.384C83.497 68.9787 83.8756 68.664 84.3556 68.44C84.8463 68.216 85.4063 68.104 86.0356 68.104C86.857 68.104 87.5823 68.3013 88.2116 68.696C88.841 69.0907 89.289 69.6453 89.5556 70.36L87.9556 71.112C87.8063 70.7173 87.5556 70.4027 87.2036 70.168C86.8516 69.9333 86.457 69.816 86.0196 69.816C85.6676 69.816 85.3903 69.896 85.1876 70.056C84.985 70.216 84.8836 70.424 84.8836 70.68C84.8836 70.84 84.9263 70.9787 85.0116 71.096C85.097 71.2133 85.2143 71.3093 85.3636 71.384C85.5236 71.4587 85.705 71.528 85.9076 71.592L87.2996 72.008C88.0143 72.2213 88.5636 72.5413 88.9476 72.968C89.3423 73.3947 89.5396 73.9173 89.5396 74.536C89.5396 75.0587 89.401 75.5227 89.1236 75.928C88.8463 76.3227 88.4623 76.632 87.9716 76.856C87.481 77.08 86.905 77.192 86.2436 77.192Z" fill="#1A202C"/>
<path d="M20.068 101.144C19.5 101.144 18.984 101.036 18.52 100.82C18.056 100.604 17.664 100.316 17.344 99.956C17.024 99.588 16.796 99.184 16.66 98.744L17.524 98.42C17.732 99.028 18.056 99.492 18.496 99.812C18.936 100.124 19.46 100.28 20.068 100.28C20.452 100.28 20.788 100.22 21.076 100.1C21.372 99.972 21.6 99.796 21.76 99.572C21.92 99.348 22 99.088 22 98.792C22 98.352 21.88 98.012 21.64 97.772C21.4 97.532 21.056 97.348 20.608 97.22L19 96.74C18.368 96.556 17.88 96.248 17.536 95.816C17.2 95.384 17.032 94.892 17.032 94.34C17.032 93.868 17.148 93.452 17.38 93.092C17.612 92.724 17.928 92.436 18.328 92.228C18.736 92.02 19.196 91.916 19.708 91.916C20.244 91.916 20.724 92.016 21.148 92.216C21.58 92.408 21.944 92.664 22.24 92.984C22.536 93.304 22.748 93.66 22.876 94.052L22.036 94.388C21.844 93.86 21.544 93.46 21.136 93.188C20.736 92.916 20.264 92.78 19.72 92.78C19.376 92.78 19.072 92.84 18.808 92.96C18.552 93.08 18.352 93.252 18.208 93.476C18.064 93.7 17.992 93.964 17.992 94.268C17.992 94.636 18.108 94.968 18.34 95.264C18.572 95.552 18.928 95.768 19.408 95.912L20.824 96.332C21.528 96.54 22.06 96.84 22.42 97.232C22.78 97.624 22.96 98.116 22.96 98.708C22.96 99.188 22.836 99.612 22.588 99.98C22.348 100.34 22.008 100.624 21.568 100.832C21.136 101.04 20.636 101.144 20.068 101.144ZM27.4898 101.144C26.8898 101.144 26.3458 101 25.8578 100.712C25.3778 100.416 24.9978 100.012 24.7178 99.5C24.4378 98.988 24.2978 98.408 24.2978 97.76C24.2978 97.112 24.4338 96.54 24.7058 96.044C24.9778 95.54 25.3458 95.144 25.8098 94.856C26.2818 94.568 26.8098 94.424 27.3938 94.424C27.8578 94.424 28.2698 94.512 28.6298 94.688C28.9978 94.856 29.3098 95.088 29.5658 95.384C29.8218 95.672 30.0178 96 30.1538 96.368C30.2898 96.728 30.3578 97.1 30.3578 97.484C30.3578 97.564 30.3538 97.656 30.3458 97.76C30.3378 97.856 30.3258 97.956 30.3098 98.06H24.8738V97.22H29.7938L29.3618 97.58C29.4338 97.14 29.3818 96.748 29.2058 96.404C29.0378 96.052 28.7938 95.776 28.4738 95.576C28.1538 95.368 27.7938 95.264 27.3938 95.264C26.9938 95.264 26.6218 95.368 26.2778 95.576C25.9418 95.784 25.6778 96.076 25.4858 96.452C25.2938 96.82 25.2178 97.26 25.2578 97.772C25.2178 98.284 25.2978 98.732 25.4978 99.116C25.7058 99.492 25.9858 99.784 26.3378 99.992C26.6978 100.2 27.0818 100.304 27.4898 100.304C27.9618 100.304 28.3578 100.192 28.6778 99.968C28.9978 99.744 29.2578 99.464 29.4578 99.128L30.2258 99.536C30.0978 99.824 29.9018 100.092 29.6378 100.34C29.3738 100.58 29.0578 100.776 28.6898 100.928C28.3298 101.072 27.9298 101.144 27.4898 101.144ZM31.8246 101V94.568H32.7246V95.792L32.5806 95.612C32.7566 95.236 33.0166 94.944 33.3606 94.736C33.7126 94.528 34.0966 94.424 34.5126 94.424C35.0086 94.424 35.4566 94.564 35.8566 94.844C36.2566 95.124 36.5406 95.488 36.7086 95.936L36.4566 95.948C36.6166 95.452 36.8926 95.076 37.2846 94.82C37.6846 94.556 38.1246 94.424 38.6046 94.424C39.0366 94.424 39.4326 94.528 39.7926 94.736C40.1606 94.944 40.4526 95.232 40.6686 95.6C40.8926 95.96 41.0046 96.368 41.0046 96.824V101H40.1046V97.172C40.1046 96.78 40.0326 96.448 39.8886 96.176C39.7526 95.904 39.5646 95.696 39.3246 95.552C39.0846 95.4 38.8086 95.324 38.4966 95.324C38.1926 95.324 37.9166 95.4 37.6686 95.552C37.4206 95.696 37.2246 95.908 37.0806 96.188C36.9366 96.46 36.8646 96.788 36.8646 97.172V101H35.9646V97.172C35.9646 96.78 35.8926 96.448 35.7486 96.176C35.6126 95.904 35.4246 95.696 35.1846 95.552C34.9446 95.4 34.6686 95.324 34.3566 95.324C34.0446 95.324 33.7646 95.4 33.5166 95.552C33.2766 95.696 33.0846 95.908 32.9406 96.188C32.7966 96.46 32.7246 96.788 32.7246 97.172V101H31.8246ZM44.4631 101.144C44.0551 101.144 43.6911 101.068 43.3711 100.916C43.0511 100.756 42.7991 100.54 42.6151 100.268C42.4311 99.996 42.3391 99.684 42.3391 99.332C42.3391 98.996 42.4111 98.692 42.5551 98.42C42.6991 98.14 42.9231 97.904 43.2271 97.712C43.5311 97.52 43.9191 97.384 44.3911 97.304L46.9111 96.884V97.7L44.6071 98.084C44.1431 98.164 43.8071 98.312 43.5991 98.528C43.3991 98.744 43.2991 99 43.2991 99.296C43.2991 99.584 43.4111 99.828 43.6351 100.028C43.8671 100.228 44.1631 100.328 44.5231 100.328C44.9631 100.328 45.3471 100.236 45.6751 100.052C46.0031 99.86 46.2591 99.604 46.4431 99.284C46.6271 98.964 46.7191 98.608 46.7191 98.216V96.584C46.7191 96.2 46.5791 95.888 46.2991 95.648C46.0191 95.408 45.6551 95.288 45.2071 95.288C44.8151 95.288 44.4711 95.388 44.1751 95.588C43.8791 95.78 43.6591 96.032 43.5151 96.344L42.6991 95.9C42.8191 95.628 43.0071 95.38 43.2631 95.156C43.5271 94.932 43.8271 94.756 44.1631 94.628C44.4991 94.492 44.8471 94.424 45.2071 94.424C45.6791 94.424 46.0951 94.516 46.4551 94.7C46.8231 94.884 47.1071 95.14 47.3071 95.468C47.5151 95.788 47.6191 96.16 47.6191 96.584V101H46.7191V99.716L46.8511 99.848C46.7391 100.088 46.5631 100.308 46.3231 100.508C46.0911 100.7 45.8151 100.856 45.4951 100.976C45.1831 101.088 44.8391 101.144 44.4631 101.144ZM49.3503 101V94.568H50.2503V95.624L50.1303 95.468C50.2823 95.164 50.5103 94.924 50.8143 94.748C51.1263 94.572 51.5023 94.484 51.9423 94.484H52.3503V95.384H51.7863C51.3223 95.384 50.9503 95.528 50.6703 95.816C50.3903 96.104 50.2503 96.512 50.2503 97.04V101H49.3503ZM55.1449 101.144C54.7369 101.144 54.3729 101.068 54.0529 100.916C53.7329 100.756 53.4809 100.54 53.2969 100.268C53.1129 99.996 53.0209 99.684 53.0209 99.332C53.0209 98.996 53.0929 98.692 53.2369 98.42C53.3809 98.14 53.6049 97.904 53.9089 97.712C54.2129 97.52 54.6009 97.384 55.0729 97.304L57.5929 96.884V97.7L55.2889 98.084C54.8249 98.164 54.4889 98.312 54.2809 98.528C54.0809 98.744 53.9809 99 53.9809 99.296C53.9809 99.584 54.0929 99.828 54.3169 100.028C54.5489 100.228 54.8449 100.328 55.2049 100.328C55.6449 100.328 56.0289 100.236 56.3569 100.052C56.6849 99.86 56.9409 99.604 57.1249 99.284C57.3089 98.964 57.4009 98.608 57.4009 98.216V96.584C57.4009 96.2 57.2609 95.888 56.9809 95.648C56.7009 95.408 56.3369 95.288 55.8889 95.288C55.4969 95.288 55.1529 95.388 54.8569 95.588C54.5609 95.78 54.3409 96.032 54.1969 96.344L53.3809 95.9C53.5009 95.628 53.6889 95.38 53.9449 95.156C54.2089 94.932 54.5089 94.756 54.8449 94.628C55.1809 94.492 55.5289 94.424 55.8889 94.424C56.3609 94.424 56.7769 94.516 57.1369 94.7C57.5049 94.884 57.7889 95.14 57.9889 95.468C58.1969 95.788 58.3009 96.16 58.3009 96.584V101H57.4009V99.716L57.5329 99.848C57.4209 100.088 57.2449 100.308 57.0049 100.508C56.7729 100.7 56.4969 100.856 56.1769 100.976C55.8649 101.088 55.5209 101.144 55.1449 101.144ZM60.0321 101V94.568H60.9321V95.816L60.7281 95.768C60.8881 95.352 61.1481 95.024 61.5081 94.784C61.8761 94.544 62.3001 94.424 62.7801 94.424C63.2361 94.424 63.6441 94.528 64.0041 94.736C64.3721 94.944 64.6601 95.232 64.8681 95.6C65.0841 95.96 65.1921 96.368 65.1921 96.824V101H64.2921V97.172C64.2921 96.78 64.2201 96.448 64.0761 96.176C63.9401 95.904 63.7441 95.696 63.4881 95.552C63.2401 95.4 62.9521 95.324 62.6241 95.324C62.2961 95.324 62.0041 95.4 61.7481 95.552C61.4921 95.696 61.2921 95.908 61.1481 96.188C61.0041 96.46 60.9321 96.788 60.9321 97.172V101H60.0321ZM69.839 103.64C69.399 103.64 68.991 103.572 68.615 103.436C68.247 103.3 67.927 103.112 67.655 102.872C67.391 102.64 67.187 102.368 67.043 102.056L67.871 101.612C67.999 101.916 68.227 102.18 68.555 102.404C68.883 102.628 69.303 102.74 69.815 102.74C70.207 102.74 70.567 102.664 70.895 102.512C71.223 102.36 71.487 102.136 71.687 101.84C71.887 101.544 71.987 101.18 71.987 100.748V99.32L72.131 99.452C71.907 99.916 71.575 100.276 71.135 100.532C70.695 100.78 70.215 100.904 69.695 100.904C69.095 100.904 68.555 100.76 68.075 100.472C67.595 100.184 67.215 99.796 66.935 99.308C66.663 98.812 66.527 98.264 66.527 97.664C66.527 97.056 66.663 96.508 66.935 96.02C67.215 95.532 67.591 95.144 68.063 94.856C68.543 94.568 69.087 94.424 69.695 94.424C70.215 94.424 70.687 94.544 71.111 94.784C71.543 95.024 71.883 95.348 72.131 95.756L71.987 96.008V94.568H72.887V100.748C72.887 101.3 72.755 101.792 72.491 102.224C72.235 102.664 71.875 103.008 71.411 103.256C70.955 103.512 70.431 103.64 69.839 103.64ZM69.743 100.004C70.159 100.004 70.535 99.9 70.871 99.692C71.207 99.476 71.475 99.192 71.675 98.84C71.883 98.48 71.987 98.088 71.987 97.664C71.987 97.24 71.883 96.852 71.675 96.5C71.475 96.14 71.207 95.856 70.871 95.648C70.535 95.432 70.159 95.324 69.743 95.324C69.319 95.324 68.935 95.432 68.591 95.648C68.247 95.856 67.975 96.136 67.775 96.488C67.583 96.84 67.487 97.232 67.487 97.664C67.487 98.088 67.583 98.48 67.775 98.84C67.975 99.192 68.243 99.476 68.579 99.692C68.923 99.9 69.311 100.004 69.743 100.004Z" fill="#90A3BF"/>
<path d="M86.0003 98.3997C85.6503 98.3997 85.3003 98.2647 85.0353 97.9997L81.7753 94.7397C81.6303 94.5947 81.6303 94.3547 81.7753 94.2097C81.9203 94.0647 82.1603 94.0647 82.3053 94.2097L85.5653 97.4697C85.8053 97.7097 86.1953 97.7097 86.4353 97.4697L89.6953 94.2097C89.8403 94.0647 90.0803 94.0647 90.2253 94.2097C90.3703 94.3547 90.3703 94.5947 90.2253 94.7397L86.9653 97.9997C86.7003 98.2647 86.3503 98.3997 86.0003 98.3997Z" fill="#1A202C" stroke="#1A202C" stroke-width="0.5"/>
<line x1="112.5" y1="60.5" x2="112.5" y2="103.5" stroke="#C3D4E9" stroke-opacity="0.4" stroke-linecap="round"/>
<path d="M133.152 77V65.08H137.04C138.299 65.08 139.392 65.336 140.32 65.848C141.259 66.3493 141.984 67.048 142.496 67.944C143.008 68.8293 143.264 69.8587 143.264 71.032C143.264 72.1947 143.008 73.2293 142.496 74.136C141.984 75.032 141.259 75.736 140.32 76.248C139.392 76.7493 138.299 77 137.04 77H133.152ZM135.328 75.08H137.088C137.899 75.08 138.597 74.9147 139.184 74.584C139.781 74.2427 140.245 73.7733 140.576 73.176C140.907 72.568 141.072 71.8533 141.072 71.032C141.072 70.2 140.907 69.4853 140.576 68.888C140.245 68.2907 139.781 67.8267 139.184 67.496C138.597 67.1653 137.899 67 137.088 67H135.328V75.08ZM147.109 77.192C146.501 77.192 145.973 77.0907 145.525 76.888C145.077 76.6853 144.73 76.3973 144.485 76.024C144.239 75.64 144.117 75.1973 144.117 74.696C144.117 74.216 144.223 73.7893 144.437 73.416C144.65 73.032 144.981 72.712 145.429 72.456C145.877 72.2 146.442 72.0187 147.125 71.912L149.973 71.448V73.048L147.525 73.464C147.109 73.5387 146.799 73.672 146.597 73.864C146.394 74.056 146.293 74.3067 146.293 74.616C146.293 74.9147 146.405 75.1547 146.629 75.336C146.863 75.5067 147.151 75.592 147.493 75.592C147.93 75.592 148.314 75.5013 148.645 75.32C148.986 75.128 149.247 74.8667 149.429 74.536C149.621 74.2053 149.717 73.8427 149.717 73.448V71.208C149.717 70.8347 149.567 70.5253 149.269 70.28C148.981 70.024 148.597 69.896 148.117 69.896C147.669 69.896 147.269 70.0187 146.917 70.264C146.575 70.4987 146.325 70.8133 146.165 71.208L144.453 70.376C144.623 69.9173 144.89 69.5227 145.253 69.192C145.626 68.8507 146.063 68.584 146.565 68.392C147.066 68.2 147.61 68.104 148.197 68.104C148.911 68.104 149.541 68.2373 150.085 68.504C150.629 68.76 151.05 69.1227 151.349 69.592C151.658 70.0507 151.813 70.5893 151.813 71.208V77H149.829V75.512L150.277 75.48C150.053 75.8533 149.786 76.168 149.477 76.424C149.167 76.6693 148.815 76.8613 148.421 77C148.026 77.128 147.589 77.192 147.109 77.192ZM157.242 77.096C156.26 77.096 155.498 76.8293 154.954 76.296C154.42 75.752 154.154 74.9893 154.154 74.008V70.168H152.65V68.296H152.81C153.236 68.296 153.567 68.184 153.802 67.96C154.036 67.736 154.154 67.4107 154.154 66.984V66.312H156.25V68.296H158.25V70.168H156.25V73.896C156.25 74.184 156.298 74.4293 156.394 74.632C156.5 74.8347 156.66 74.9893 156.874 75.096C157.098 75.2027 157.38 75.256 157.722 75.256C157.796 75.256 157.882 75.2507 157.978 75.24C158.084 75.2293 158.186 75.2187 158.282 75.208V77C158.132 77.0213 157.962 77.0427 157.77 77.064C157.578 77.0853 157.402 77.096 157.242 77.096ZM163.613 77.192C162.717 77.192 161.933 76.9893 161.261 76.584C160.589 76.1787 160.066 75.6293 159.693 74.936C159.319 74.2427 159.133 73.4747 159.133 72.632C159.133 71.7573 159.319 70.984 159.693 70.312C160.077 69.6293 160.594 69.0907 161.245 68.696C161.906 68.3013 162.642 68.104 163.453 68.104C164.135 68.104 164.733 68.216 165.245 68.44C165.767 68.664 166.21 68.9733 166.573 69.368C166.935 69.7627 167.213 70.216 167.405 70.728C167.597 71.2293 167.693 71.7733 167.693 72.36C167.693 72.5093 167.682 72.664 167.661 72.824C167.65 72.984 167.623 73.1227 167.581 73.24H160.861V71.64H166.397L165.405 72.392C165.501 71.9013 165.474 71.464 165.325 71.08C165.186 70.696 164.951 70.392 164.621 70.168C164.301 69.944 163.911 69.832 163.453 69.832C163.015 69.832 162.626 69.944 162.285 70.168C161.943 70.3813 161.682 70.7013 161.501 71.128C161.33 71.544 161.266 72.0507 161.309 72.648C161.266 73.1813 161.335 73.656 161.517 74.072C161.709 74.4773 161.986 74.792 162.349 75.016C162.722 75.24 163.149 75.352 163.629 75.352C164.109 75.352 164.514 75.2507 164.845 75.048C165.186 74.8453 165.453 74.5733 165.645 74.232L167.341 75.064C167.17 75.48 166.903 75.848 166.541 76.168C166.178 76.488 165.746 76.7387 165.245 76.92C164.754 77.1013 164.21 77.192 163.613 77.192Z" fill="#1A202C"/>
<path d="M132.696 101V100.4L135.192 97.652C135.68 97.116 136.076 96.672 136.38 96.32C136.692 95.968 136.924 95.648 137.076 95.36C137.228 95.072 137.304 94.76 137.304 94.424C137.304 93.888 137.148 93.476 136.836 93.188C136.524 92.9 136.108 92.756 135.588 92.756C135.052 92.756 134.6 92.908 134.232 93.212C133.872 93.516 133.628 93.94 133.5 94.484L132.624 94.292C132.728 93.804 132.916 93.384 133.188 93.032C133.46 92.68 133.8 92.408 134.208 92.216C134.616 92.016 135.072 91.916 135.576 91.916C136.112 91.916 136.58 92.024 136.98 92.24C137.38 92.456 137.692 92.752 137.916 93.128C138.148 93.504 138.264 93.936 138.264 94.424C138.264 94.76 138.192 95.084 138.048 95.396C137.912 95.708 137.704 96.044 137.424 96.404C137.144 96.764 136.784 97.184 136.344 97.664L134.076 100.16H138.504V101H132.696ZM143.479 101.144C142.775 101.144 142.155 100.952 141.619 100.568C141.091 100.176 140.679 99.636 140.383 98.948C140.087 98.252 139.939 97.444 139.939 96.524C139.939 95.604 140.087 94.8 140.383 94.112C140.679 93.416 141.091 92.876 141.619 92.492C142.147 92.108 142.763 91.916 143.467 91.916C144.171 91.916 144.787 92.108 145.315 92.492C145.843 92.876 146.255 93.416 146.551 94.112C146.847 94.8 146.995 95.604 146.995 96.524C146.995 97.444 146.847 98.252 146.551 98.948C146.263 99.644 145.855 100.184 145.327 100.568C144.799 100.952 144.183 101.144 143.479 101.144ZM143.479 100.244C143.991 100.244 144.439 100.088 144.823 99.776C145.207 99.464 145.507 99.032 145.723 98.48C145.939 97.92 146.047 97.268 146.047 96.524C146.047 95.78 145.939 95.132 145.723 94.58C145.507 94.02 145.207 93.588 144.823 93.284C144.439 92.972 143.987 92.816 143.467 92.816C142.955 92.816 142.507 92.972 142.123 93.284C141.739 93.588 141.439 94.02 141.223 94.58C141.007 95.132 140.899 95.78 140.899 96.524C140.899 97.26 141.007 97.908 141.223 98.468C141.439 99.028 141.739 99.464 142.123 99.776C142.515 100.088 142.967 100.244 143.479 100.244ZM150.323 101V100.04H150.803C151.251 100.04 151.603 99.908 151.859 99.644C152.115 99.372 152.243 99.004 152.243 98.54V92.06H153.203V98.54C153.203 99.044 153.103 99.48 152.903 99.848C152.711 100.216 152.435 100.5 152.075 100.7C151.715 100.9 151.291 101 150.803 101H150.323ZM157.341 101.144C156.893 101.144 156.485 101.04 156.117 100.832C155.749 100.616 155.457 100.32 155.241 99.944C155.033 99.56 154.929 99.12 154.929 98.624V94.568H155.829V98.516C155.829 98.86 155.897 99.164 156.033 99.428C156.177 99.684 156.373 99.884 156.621 100.028C156.877 100.172 157.169 100.244 157.497 100.244C157.825 100.244 158.117 100.172 158.373 100.028C158.629 99.876 158.829 99.664 158.973 99.392C159.117 99.112 159.189 98.78 159.189 98.396V94.568H160.089V101H159.189V99.752L159.393 99.8C159.241 100.216 158.981 100.544 158.613 100.784C158.245 101.024 157.821 101.144 157.341 101.144ZM161.82 101V91.916H162.72V101H161.82ZM164.574 103.64C164.446 103.64 164.314 103.628 164.178 103.604C164.05 103.588 163.922 103.556 163.794 103.508V102.668C163.874 102.676 163.974 102.688 164.094 102.704C164.222 102.728 164.35 102.74 164.478 102.74C164.87 102.74 165.17 102.656 165.378 102.488C165.586 102.328 165.79 102.016 165.99 101.552L166.398 100.592L166.374 101.384L163.65 94.568H164.622L166.854 100.196H166.602L168.822 94.568H169.818L166.878 101.816C166.75 102.128 166.586 102.424 166.386 102.704C166.194 102.984 165.95 103.208 165.654 103.376C165.358 103.552 164.998 103.64 164.574 103.64ZM172.447 101V100.4L174.943 97.652C175.431 97.116 175.827 96.672 176.131 96.32C176.443 95.968 176.675 95.648 176.827 95.36C176.979 95.072 177.055 94.76 177.055 94.424C177.055 93.888 176.899 93.476 176.587 93.188C176.275 92.9 175.859 92.756 175.339 92.756C174.803 92.756 174.351 92.908 173.983 93.212C173.623 93.516 173.379 93.94 173.251 94.484L172.375 94.292C172.479 93.804 172.667 93.384 172.939 93.032C173.211 92.68 173.551 92.408 173.959 92.216C174.367 92.016 174.823 91.916 175.327 91.916C175.863 91.916 176.331 92.024 176.731 92.24C177.131 92.456 177.443 92.752 177.667 93.128C177.899 93.504 178.015 93.936 178.015 94.424C178.015 94.76 177.943 95.084 177.799 95.396C177.663 95.708 177.455 96.044 177.175 96.404C176.895 96.764 176.535 97.184 176.095 97.664L173.827 100.16H178.255V101H172.447ZM183.23 101.144C182.526 101.144 181.906 100.952 181.37 100.568C180.842 100.176 180.43 99.636 180.134 98.948C179.838 98.252 179.69 97.444 179.69 96.524C179.69 95.604 179.838 94.8 180.134 94.112C180.43 93.416 180.842 92.876 181.37 92.492C181.898 92.108 182.514 91.916 183.218 91.916C183.922 91.916 184.538 92.108 185.066 92.492C185.594 92.876 186.006 93.416 186.302 94.112C186.598 94.8 186.746 95.604 186.746 96.524C186.746 97.444 186.598 98.252 186.302 98.948C186.014 99.644 185.606 100.184 185.078 100.568C184.55 100.952 183.934 101.144 183.23 101.144ZM183.23 100.244C183.742 100.244 184.19 100.088 184.574 99.776C184.958 99.464 185.258 99.032 185.474 98.48C185.69 97.92 185.798 97.268 185.798 96.524C185.798 95.78 185.69 95.132 185.474 94.58C185.258 94.02 184.958 93.588 184.574 93.284C184.19 92.972 183.738 92.816 183.218 92.816C182.706 92.816 182.258 92.972 181.874 93.284C181.49 93.588 181.19 94.02 180.974 94.58C180.758 95.132 180.65 95.78 180.65 96.524C180.65 97.26 180.758 97.908 180.974 98.468C181.19 99.028 181.49 99.464 181.874 99.776C182.266 100.088 182.718 100.244 183.23 100.244ZM188.191 101V100.4L190.687 97.652C191.175 97.116 191.571 96.672 191.875 96.32C192.187 95.968 192.419 95.648 192.571 95.36C192.723 95.072 192.799 94.76 192.799 94.424C192.799 93.888 192.643 93.476 192.331 93.188C192.019 92.9 191.603 92.756 191.083 92.756C190.547 92.756 190.095 92.908 189.727 93.212C189.367 93.516 189.123 93.94 188.995 94.484L188.119 94.292C188.223 93.804 188.411 93.384 188.683 93.032C188.955 92.68 189.295 92.408 189.703 92.216C190.111 92.016 190.567 91.916 191.071 91.916C191.607 91.916 192.075 92.024 192.475 92.24C192.875 92.456 193.187 92.752 193.411 93.128C193.643 93.504 193.759 93.936 193.759 94.424C193.759 94.76 193.687 95.084 193.543 95.396C193.407 95.708 193.199 96.044 192.919 96.404C192.639 96.764 192.279 97.184 191.839 97.664L189.571 100.16H193.999V101H188.191ZM195.267 101V100.4L197.763 97.652C198.251 97.116 198.647 96.672 198.951 96.32C199.263 95.968 199.495 95.648 199.647 95.36C199.799 95.072 199.875 94.76 199.875 94.424C199.875 93.888 199.719 93.476 199.407 93.188C199.095 92.9 198.679 92.756 198.159 92.756C197.623 92.756 197.171 92.908 196.803 93.212C196.443 93.516 196.199 93.94 196.071 94.484L195.195 94.292C195.299 93.804 195.487 93.384 195.759 93.032C196.031 92.68 196.371 92.408 196.779 92.216C197.187 92.016 197.643 91.916 198.147 91.916C198.683 91.916 199.151 92.024 199.551 92.24C199.951 92.456 200.263 92.752 200.487 93.128C200.719 93.504 200.835 93.936 200.835 94.424C200.835 94.76 200.763 95.084 200.619 95.396C200.483 95.708 200.275 96.044 199.995 96.404C199.715 96.764 199.355 97.184 198.915 97.664L196.647 100.16H201.075V101H195.267Z" fill="#90A3BF"/>
<path d="M213 98.3997C212.65 98.3997 212.3 98.2647 212.035 97.9997L208.775 94.7397C208.63 94.5947 208.63 94.3547 208.775 94.2097C208.92 94.0647 209.16 94.0647 209.305 94.2097L212.565 97.4697C212.805 97.7097 213.195 97.7097 213.435 97.4697L216.695 94.2097C216.84 94.0647 217.08 94.0647 217.225 94.2097C217.37 94.3547 217.37 94.5947 217.225 94.7397L213.965 97.9997C213.7 98.2647 213.35 98.3997 213 98.3997Z" fill="#1A202C" stroke="#1A202C" stroke-width="0.5"/>
<line x1="239.5" y1="60.5" x2="239.5" y2="103.5" stroke="#C3D4E9" stroke-opacity="0.4" stroke-linecap="round"/>
<path d="M262.264 77V67H259.176V65.08H267.496V67H264.456V77H262.264ZM268.328 77V68.296H270.424V77H268.328ZM268.328 67.32V65.08H270.424V67.32H268.328ZM272.039 77V68.296H274.007V70.312L273.783 69.976C273.943 69.3467 274.263 68.8773 274.743 68.568C275.223 68.2587 275.788 68.104 276.439 68.104C277.154 68.104 277.783 68.2907 278.327 68.664C278.871 69.0373 279.223 69.528 279.383 70.136L278.791 70.184C279.058 69.4907 279.458 68.9733 279.991 68.632C280.524 68.28 281.138 68.104 281.831 68.104C282.45 68.104 282.999 68.2427 283.479 68.52C283.97 68.7973 284.354 69.1867 284.631 69.688C284.908 70.1787 285.047 70.7493 285.047 71.4V77H282.951V71.896C282.951 71.512 282.882 71.1813 282.743 70.904C282.604 70.6267 282.412 70.4133 282.167 70.264C281.922 70.104 281.623 70.024 281.271 70.024C280.94 70.024 280.647 70.104 280.391 70.264C280.135 70.4133 279.938 70.6267 279.799 70.904C279.66 71.1813 279.591 71.512 279.591 71.896V77H277.495V71.896C277.495 71.512 277.426 71.1813 277.287 70.904C277.148 70.6267 276.951 70.4133 276.695 70.264C276.45 70.104 276.156 70.024 275.815 70.024C275.484 70.024 275.191 70.104 274.935 70.264C274.679 70.4133 274.482 70.6267 274.343 70.904C274.204 71.1813 274.135 71.512 274.135 71.896V77H272.039ZM290.628 77.192C289.732 77.192 288.948 76.9893 288.276 76.584C287.604 76.1787 287.082 75.6293 286.708 74.936C286.335 74.2427 286.148 73.4747 286.148 72.632C286.148 71.7573 286.335 70.984 286.708 70.312C287.092 69.6293 287.61 69.0907 288.26 68.696C288.922 68.3013 289.658 68.104 290.468 68.104C291.151 68.104 291.748 68.216 292.26 68.44C292.783 68.664 293.226 68.9733 293.588 69.368C293.951 69.7627 294.228 70.216 294.42 70.728C294.612 71.2293 294.708 71.7733 294.708 72.36C294.708 72.5093 294.698 72.664 294.676 72.824C294.666 72.984 294.639 73.1227 294.596 73.24H287.876V71.64H293.412L292.42 72.392C292.516 71.9013 292.49 71.464 292.34 71.08C292.202 70.696 291.967 70.392 291.636 70.168C291.316 69.944 290.927 69.832 290.468 69.832C290.031 69.832 289.642 69.944 289.3 70.168C288.959 70.3813 288.698 70.7013 288.516 71.128C288.346 71.544 288.282 72.0507 288.324 72.648C288.282 73.1813 288.351 73.656 288.532 74.072C288.724 74.4773 289.002 74.792 289.364 75.016C289.738 75.24 290.164 75.352 290.644 75.352C291.124 75.352 291.53 75.2507 291.86 75.048C292.202 74.8453 292.468 74.5733 292.66 74.232L294.356 75.064C294.186 75.48 293.919 75.848 293.556 76.168C293.194 76.488 292.762 76.7387 292.26 76.92C291.77 77.1013 291.226 77.192 290.628 77.192Z" fill="#1A202C"/>
<path d="M263.404 101.144C262.7 101.144 262.08 100.952 261.544 100.568C261.016 100.176 260.604 99.636 260.308 98.948C260.012 98.252 259.864 97.444 259.864 96.524C259.864 95.604 260.012 94.8 260.308 94.112C260.604 93.416 261.016 92.876 261.544 92.492C262.072 92.108 262.688 91.916 263.392 91.916C264.096 91.916 264.712 92.108 265.24 92.492C265.768 92.876 266.18 93.416 266.476 94.112C266.772 94.8 266.92 95.604 266.92 96.524C266.92 97.444 266.772 98.252 266.476 98.948C266.188 99.644 265.78 100.184 265.252 100.568C264.724 100.952 264.108 101.144 263.404 101.144ZM263.404 100.244C263.916 100.244 264.364 100.088 264.748 99.776C265.132 99.464 265.432 99.032 265.648 98.48C265.864 97.92 265.972 97.268 265.972 96.524C265.972 95.78 265.864 95.132 265.648 94.58C265.432 94.02 265.132 93.588 264.748 93.284C264.364 92.972 263.912 92.816 263.392 92.816C262.88 92.816 262.432 92.972 262.048 93.284C261.664 93.588 261.364 94.02 261.148 94.58C260.932 95.132 260.824 95.78 260.824 96.524C260.824 97.26 260.932 97.908 261.148 98.468C261.364 99.028 261.664 99.464 262.048 99.776C262.44 100.088 262.892 100.244 263.404 100.244ZM268.617 101L272.649 92.9H268.185V92.06H273.645V92.9L269.625 101H268.617ZM274.82 101V99.68H275.78V101H274.82ZM281.302 101.144C280.598 101.144 279.978 100.952 279.442 100.568C278.914 100.176 278.502 99.636 278.206 98.948C277.91 98.252 277.762 97.444 277.762 96.524C277.762 95.604 277.91 94.8 278.206 94.112C278.502 93.416 278.914 92.876 279.442 92.492C279.97 92.108 280.586 91.916 281.29 91.916C281.994 91.916 282.61 92.108 283.138 92.492C283.666 92.876 284.078 93.416 284.374 94.112C284.67 94.8 284.818 95.604 284.818 96.524C284.818 97.444 284.67 98.252 284.374 98.948C284.086 99.644 283.678 100.184 283.15 100.568C282.622 100.952 282.006 101.144 281.302 101.144ZM281.302 100.244C281.814 100.244 282.262 100.088 282.646 99.776C283.03 99.464 283.33 99.032 283.546 98.48C283.762 97.92 283.87 97.268 283.87 96.524C283.87 95.78 283.762 95.132 283.546 94.58C283.33 94.02 283.03 93.588 282.646 93.284C282.262 92.972 281.81 92.816 281.29 92.816C280.778 92.816 280.33 92.972 279.946 93.284C279.562 93.588 279.262 94.02 279.046 94.58C278.83 95.132 278.722 95.78 278.722 96.524C278.722 97.26 278.83 97.908 279.046 98.468C279.262 99.028 279.562 99.464 279.946 99.776C280.338 100.088 280.79 100.244 281.302 100.244ZM289.971 101.144C289.267 101.144 288.647 100.952 288.111 100.568C287.583 100.176 287.171 99.636 286.875 98.948C286.579 98.252 286.431 97.444 286.431 96.524C286.431 95.604 286.579 94.8 286.875 94.112C287.171 93.416 287.583 92.876 288.111 92.492C288.639 92.108 289.255 91.916 289.959 91.916C290.663 91.916 291.279 92.108 291.807 92.492C292.335 92.876 292.747 93.416 293.043 94.112C293.339 94.8 293.487 95.604 293.487 96.524C293.487 97.444 293.339 98.252 293.043 98.948C292.755 99.644 292.347 100.184 291.819 100.568C291.291 100.952 290.675 101.144 289.971 101.144ZM289.971 100.244C290.483 100.244 290.931 100.088 291.315 99.776C291.699 99.464 291.999 99.032 292.215 98.48C292.431 97.92 292.539 97.268 292.539 96.524C292.539 95.78 292.431 95.132 292.215 94.58C291.999 94.02 291.699 93.588 291.315 93.284C290.931 92.972 290.479 92.816 289.959 92.816C289.447 92.816 288.999 92.972 288.615 93.284C288.231 93.588 287.931 94.02 287.715 94.58C287.499 95.132 287.391 95.78 287.391 96.524C287.391 97.26 287.499 97.908 287.715 98.468C287.931 99.028 288.231 99.464 288.615 99.776C289.007 100.088 289.459 100.244 289.971 100.244Z" fill="#90A3BF"/>
<path d="M305 98.3997C304.65 98.3997 304.3 98.2647 304.035 97.9997L300.775 94.7397C300.63 94.5947 300.63 94.3547 300.775 94.2097C300.92 94.0647 301.16 94.0647 301.305 94.2097L304.565 97.4697C304.805 97.7097 305.195 97.7097 305.435 97.4697L308.695 94.2097C308.84 94.0647 309.08 94.0647 309.225 94.2097C309.37 94.3547 309.37 94.5947 309.225 94.7397L305.965 97.9997C305.7 98.2647 305.35 98.3997 305 98.3997Z" fill="#1A202C" stroke="#1A202C" stroke-width="0.5"/>
</svg>
